<svg width="60" height="60" viewBox="0 0 60 60" fill="none" xmlns="http://www.w3.org/2000/svg">
<path d="M44.4748 35.4985C41.8042 43.0578 34.4558 47.9395 26.4523 47.4713C18.4487 47.0031 11.7197 41.2979 9.9487 33.4787C8.17769 25.6595 11.7917 17.6117 18.8124 13.7405C25.8331 9.86938 34.5677 11.1083 40.235 16.7791L50.7011 26.6364C51.6057 27.4882 53.0297 27.4455 53.8816 26.5408C54.7334 25.6362 54.6907 24.2123 53.786 23.3604L43.3689 13.5507C36.3338 6.50975 25.4155 4.96107 16.6396 9.79999C7.86375 14.6389 3.34625 24.6988 5.56001 34.4727C7.77377 44.2467 16.185 51.3782 26.1895 51.9635C36.1939 52.5488 45.3793 46.4466 48.7177 36.9975C49.1316 35.8259 48.5174 34.5405 47.3457 34.1266C46.1741 33.7127 44.8888 34.3269 44.4748 35.4985Z" fill="#C04949"/>
<path d="M42.6815 23.8733C41.7495 23.8733 40.994 24.6288 40.994 25.5608C40.994 26.4927 41.7495 27.2482 42.6815 27.2482H52.8061C53.7381 27.2482 54.4936 26.4927 54.4936 25.5608V15.4361C54.4936 14.5042 53.7381 13.7487 52.8061 13.7487C51.8742 13.7487 51.1187 14.5042 51.1187 15.4361V23.8733H42.6815Z" fill="#C04949" stroke="#C04949" stroke-width="0.5"/>
<mask id="mask0_187_455" style="mask-type:alpha" maskUnits="userSpaceOnUse" x="16" y="22" width="21" height="15">
<path d="M22.4568 36.0613C22.6096 36.0613 22.7416 36.0113 22.8527 35.9113C22.9639 35.8113 23.0194 35.6926 23.0194 35.5551V23.443C23.0194 23.3055 22.9639 23.1868 22.8527 23.0868C22.7416 22.9868 22.6096 22.9368 22.4568 22.9368H21.6025C21.4913 22.9368 21.3802 22.943 21.2691 22.9555C21.1579 22.968 21.0468 23.0118 20.9357 23.0868L16.4764 26.1617C16.3514 26.2492 16.2784 26.3616 16.2576 26.4991C16.2368 26.6366 16.275 26.7616 16.3722 26.8741L16.8723 27.4554C16.9695 27.5554 17.0946 27.6179 17.2474 27.6429C17.4002 27.6679 17.5391 27.6304 17.6641 27.5304L21.0398 25.2242V35.5551C21.0398 35.6926 21.0954 35.8113 21.2065 35.9113C21.3177 36.0113 21.4496 36.0613 21.6025 36.0613H22.4568ZM31.167 36.2488C32.0838 36.2488 32.8722 36.1176 33.532 35.8551C34.1919 35.5926 34.7371 35.2301 35.1678 34.7676C35.5984 34.3051 35.9214 33.7583 36.1367 33.1271C36.3521 32.4958 36.4667 31.8177 36.4806 31.0927C36.4945 30.5303 36.5014 30.0022 36.5014 29.5084C36.5014 29.0147 36.4945 28.4866 36.4806 27.9241C36.4667 27.1991 36.3521 26.521 36.1367 25.8898C35.9214 25.2586 35.5984 24.7117 35.1678 24.2492C34.7371 23.7867 34.1919 23.4211 33.532 23.1524C32.8722 22.8836 32.0838 22.7493 31.167 22.7493C30.2501 22.7493 29.4617 22.8836 28.8019 23.1524C28.142 23.4211 27.5968 23.7867 27.1661 24.2492C26.7355 24.7117 26.4125 25.2586 26.1972 25.8898C25.9818 26.521 25.8672 27.1991 25.8533 27.9241C25.8395 28.4866 25.8325 29.0147 25.8325 29.5084C25.8325 30.0022 25.8395 30.5303 25.8533 31.0927C25.8672 31.8177 25.9818 32.4958 26.1972 33.1271C26.4125 33.7583 26.7355 34.3051 27.1661 34.7676C27.5968 35.2301 28.142 35.5926 28.8019 35.8551C29.4617 36.1176 30.2501 36.2488 31.167 36.2488ZM31.167 34.5614C30.0834 34.5614 29.2603 34.2801 28.6977 33.7177C28.1351 33.1552 27.8399 32.2802 27.8121 31.0927C27.7982 30.5303 27.7913 30.0022 27.7913 29.5084C27.7913 29.0147 27.7982 28.4866 27.8121 27.9241C27.8399 26.7366 28.1351 25.8585 28.6977 25.2898C29.2603 24.7211 30.0834 24.4367 31.167 24.4367C32.2505 24.4367 33.0736 24.7211 33.6362 25.2898C34.1988 25.8585 34.494 26.7366 34.5218 27.9241C34.5357 28.4866 34.5427 29.0147 34.5427 29.5084C34.5427 30.0022 34.5357 30.5303 34.5218 31.0927C34.494 32.2802 34.1988 33.1552 33.6362 33.7177C33.0736 34.2801 32.2505 34.5614 31.167 34.5614Z" fill="white"/>
</mask>
<g mask="url(#mask0_187_455)">
<path d="M22.4568 36.0613C22.6096 36.0613 22.7416 36.0113 22.8527 35.9113C22.9639 35.8113 23.0194 35.6926 23.0194 35.5551V23.443C23.0194 23.3055 22.9639 23.1868 22.8527 23.0868C22.7416 22.9868 22.6096 22.9368 22.4568 22.9368H21.6025C21.4913 22.9368 21.3802 22.943 21.2691 22.9555C21.1579 22.968 21.0468 23.0118 20.9357 23.0868L16.4764 26.1617C16.3514 26.2492 16.2784 26.3616 16.2576 26.4991C16.2368 26.6366 16.275 26.7616 16.3722 26.8741L16.8723 27.4554C16.9695 27.5554 17.0946 27.6179 17.2474 27.6429C17.4002 27.6679 17.5391 27.6304 17.6641 27.5304L21.0398 25.2242V35.5551C21.0398 35.6926 21.0954 35.8113 21.2065 35.9113C21.3177 36.0113 21.4496 36.0613 21.6025 36.0613H22.4568ZM31.167 36.2488C32.0838 36.2488 32.8722 36.1176 33.532 35.8551C34.1919 35.5926 34.7371 35.2301 35.1678 34.7676C35.5984 34.3051 35.9214 33.7583 36.1367 33.1271C36.3521 32.4958 36.4667 31.8177 36.4806 31.0927C36.4945 30.5303 36.5014 30.0022 36.5014 29.5084C36.5014 29.0147 36.4945 28.4866 36.4806 27.9241C36.4667 27.1991 36.3521 26.521 36.1367 25.8898C35.9214 25.2586 35.5984 24.7117 35.1678 24.2492C34.7371 23.7867 34.1919 23.4211 33.532 23.1524C32.8722 22.8836 32.0838 22.7493 31.167 22.7493C30.2501 22.7493 29.4617 22.8836 28.8019 23.1524C28.142 23.4211 27.5968 23.7867 27.1661 24.2492C26.7355 24.7117 26.4125 25.2586 26.1972 25.8898C25.9818 26.521 25.8672 27.1991 25.8533 27.9241C25.8395 28.4866 25.8325 29.0147 25.8325 29.5084C25.8325 30.0022 25.8395 30.5303 25.8533 31.0927C25.8672 31.8177 25.9818 32.4958 26.1972 33.1271C26.4125 33.7583 26.7355 34.3051 27.1661 34.7676C27.5968 35.2301 28.142 35.5926 28.8019 35.8551C29.4617 36.1176 30.2501 36.2488 31.167 36.2488ZM31.167 34.5614C30.0834 34.5614 29.2603 34.2801 28.6977 33.7177C28.1351 33.1552 27.8399 32.2802 27.8121 31.0927C27.7982 30.5303 27.7913 30.0022 27.7913 29.5084C27.7913 29.0147 27.7982 28.4866 27.8121 27.9241C27.8399 26.7366 28.1351 25.8585 28.6977 25.2898C29.2603 24.7211 30.0834 24.4367 31.167 24.4367C32.2505 24.4367 33.0736 24.7211 33.6362 25.2898C34.1988 25.8585 34.494 26.7366 34.5218 27.9241C34.5357 28.4866 34.5427 29.0147 34.5427 29.5084C34.5427 30.0022 34.5357 30.5303 34.5218 31.0927C34.494 32.2802 34.1988 33.1552 33.6362 33.7177C33.0736 34.2801 32.2505 34.5614 31.167 34.5614Z" fill="#C04949" stroke="#C04949" stroke-width="0.5"/>
</g>
</svg>
