<svg width="60" height="60" viewBox="0 0 60 60" fill="none" xmlns="http://www.w3.org/2000/svg">
<path fill-rule="evenodd" clip-rule="evenodd" d="M36.9008 6.00192L50.6019 6.00192C51.2229 5.97543 51.8527 6.19927 52.3269 6.67346C52.7765 7.12309 53.001 7.71257 53.0005 8.30188V22.1016C53.0005 23.3718 51.9708 24.4016 50.7005 24.4016C49.4303 24.4016 48.4006 23.3718 48.4006 22.1016L48.4006 13.8524L36.2272 26.0258C35.329 26.924 33.8727 26.924 32.9745 26.0258C32.0763 25.1276 32.0763 23.6713 32.9745 22.7731L45.1459 10.6018L36.9008 10.6018C35.6306 10.6018 34.6009 9.5721 34.6009 8.30187C34.6009 7.03164 35.6306 6.00192 36.9008 6.00192ZM9.29726 51.699C9.29884 51.699 9.30042 51.699 9.302 51.699H23.1017C24.372 51.699 25.4017 50.6693 25.4017 49.3991C25.4017 48.1288 24.372 47.0991 23.1017 47.0991H14.8525L27.026 34.9257C27.9241 34.0275 27.9241 32.5713 27.026 31.6731C26.1278 30.7749 24.6715 30.7749 23.7733 31.6731L11.602 43.8445L11.602 35.5993C11.602 34.3291 10.5722 33.2994 9.302 33.2994C8.03177 33.2994 7.00204 34.3291 7.00204 35.5993L7.00204 49.3019C6.97596 49.9225 7.19982 50.5516 7.67364 51.0254C8.12205 51.4738 8.70955 51.6983 9.29726 51.699Z" fill="#C04949"/>
</svg>
