<svg width="60" height="60" viewBox="0 0 60 60" fill="none" xmlns="http://www.w3.org/2000/svg">
<path fill-rule="evenodd" clip-rule="evenodd" d="M32.9745 26.026C32.5253 25.5767 32.3008 24.9879 32.3009 24.3992V24.3976V10.5979C32.3009 9.32766 33.3306 8.29793 34.6008 8.29793C35.8711 8.29793 36.9008 9.32766 36.9008 10.5979V18.8471L49.0742 6.67364C49.9724 5.77545 51.4286 5.77545 52.3268 6.67364C53.225 7.57183 53.225 9.02808 52.3268 9.92627L40.1554 22.0977H48.4006C49.6708 22.0977 50.7005 23.1274 50.7005 24.3976C50.7005 25.6679 49.6708 26.6976 48.4006 26.6976H34.6975C34.0771 26.7235 33.4482 26.4996 32.9745 26.026ZM19.8471 35.9008L7.67364 48.0742C6.77545 48.9724 6.77545 50.4286 7.67364 51.3268C8.57183 52.225 10.0281 52.225 10.9263 51.3268L23.0977 39.1554V47.4006C23.0977 48.6708 24.1274 49.7005 25.3976 49.7005C26.6679 49.7005 27.6976 48.6708 27.6976 47.4006V33.6975C27.7235 33.0771 27.4996 32.4482 27.026 31.9745C26.5767 31.5253 25.9879 31.3008 25.3992 31.3009C25.3987 31.3009 25.3981 31.3009 25.3976 31.3009H11.5979C10.3277 31.3009 9.29793 32.3306 9.29793 33.6008C9.29793 34.8711 10.3277 35.9008 11.5979 35.9008H19.8471Z" fill="#C04949"/>
<mask id="mask0_187_451" style="mask-type:alpha" maskUnits="userSpaceOnUse" x="7" y="6" width="47" height="47">
<path fill-rule="evenodd" clip-rule="evenodd" d="M32.9745 26.026C32.5253 25.5767 32.3008 24.9879 32.3009 24.3992V24.3976V10.5979C32.3009 9.32766 33.3306 8.29793 34.6008 8.29793C35.8711 8.29793 36.9008 9.32766 36.9008 10.5979V18.8471L49.0742 6.67364C49.9724 5.77545 51.4286 5.77545 52.3268 6.67364C53.225 7.57183 53.225 9.02808 52.3268 9.92627L40.1554 22.0977H48.4006C49.6708 22.0977 50.7005 23.1274 50.7005 24.3976C50.7005 25.6679 49.6708 26.6976 48.4006 26.6976H34.6975C34.0771 26.7235 33.4482 26.4996 32.9745 26.026ZM19.8471 35.9008L7.67364 48.0742C6.77545 48.9724 6.77545 50.4286 7.67364 51.3268C8.57183 52.225 10.0281 52.225 10.9263 51.3268L23.0977 39.1554V47.4006C23.0977 48.6708 24.1274 49.7005 25.3976 49.7005C26.6679 49.7005 27.6976 48.6708 27.6976 47.4006V33.6975C27.7235 33.0771 27.4996 32.4482 27.026 31.9745C26.5767 31.5253 25.9879 31.3008 25.3992 31.3009C25.3987 31.3009 25.3981 31.3009 25.3976 31.3009H11.5979C10.3277 31.3009 9.29793 32.3306 9.29793 33.6008C9.29793 34.8711 10.3277 35.9008 11.5979 35.9008H19.8471Z" fill="white"/>
</mask>
<g mask="url(#mask0_187_451)">
</g>
</svg>
