<svg width="79" height="30" viewBox="0 0 79 30" fill="none" xmlns="http://www.w3.org/2000/svg">
<path d="M1.9055 24V8.352H5.4335V21.024H11.6255V24H1.9055ZM16.2474 24V8.352H19.7754V24H16.2474ZM28.0981 24L23.3701 8.352H27.1141L28.9861 15.648C29.2261 16.496 29.4341 17.328 29.6101 18.144C29.8021 18.96 30.0181 19.8 30.2581 20.664H30.3541C30.5781 19.8 30.7861 18.96 30.9781 18.144C31.1701 17.328 31.3781 16.496 31.6021 15.648L33.4501 8.352H37.0501L32.3461 24H28.0981ZM40.6421 24V8.352H50.4341V11.328H44.1701V14.472H49.4981V17.424H44.1701V21.024H50.6741V24H40.6421Z" fill="#C04949"/>
<circle cx="67" cy="15" r="8" fill="#C04949" stroke="#C04949" stroke-width="4"/>
</svg>
