<svg width="60" height="60" viewBox="0 0 60 60" fill="none" xmlns="http://www.w3.org/2000/svg">
<path fill-rule="evenodd" clip-rule="evenodd" d="M20.5252 17.5018L34.2733 6.6344C36.178 5.12879 38.9995 6.46873 38.9995 8.87887V49.1194C38.9995 51.5296 36.178 52.8695 34.2733 51.3639L20.5252 40.4964H9.90971C8.30313 40.4964 7.00073 39.2096 7.00073 37.6221V20.3762C7.00073 18.7887 8.30313 17.5018 9.90971 17.5018H20.5252ZM44.3438 21.8278C48.4652 25.7888 48.4652 32.2095 44.3438 36.1705C43.3132 37.1609 43.3135 38.7665 44.3444 39.7567C45.3753 40.7468 47.0464 40.7466 48.077 39.7561C54.2591 33.8147 54.2591 24.1836 48.077 18.2421C47.0464 17.2517 45.3753 17.2514 44.3444 18.2416C43.3135 19.2318 43.3132 20.8374 44.3438 21.8278ZM21.3685 22.454C22.11 22.454 22.8293 22.2011 23.4083 21.7368L34.4292 12.8995V45.0995L23.4083 36.2622C22.8293 35.798 22.11 35.5451 21.3685 35.5451H11.573V22.454H21.3685Z" fill="white"/>
<mask id="mask0_186_354" style="mask-type:alpha" maskUnits="userSpaceOnUse" x="7" y="5" width="46" height="47">
<path fill-rule="evenodd" clip-rule="evenodd" d="M20.5252 17.5018L34.2733 6.6344C36.178 5.12879 38.9995 6.46873 38.9995 8.87887V49.1194C38.9995 51.5296 36.178 52.8695 34.2733 51.3639L20.5252 40.4964H9.90971C8.30313 40.4964 7.00073 39.2096 7.00073 37.6221V20.3762C7.00073 18.7887 8.30313 17.5018 9.90971 17.5018H20.5252ZM44.3438 21.8278C48.4652 25.7888 48.4652 32.2095 44.3438 36.1705C43.3132 37.1609 43.3135 38.7665 44.3444 39.7567C45.3753 40.7468 47.0464 40.7466 48.077 39.7561C54.2591 33.8147 54.2591 24.1836 48.077 18.2421C47.0464 17.2517 45.3753 17.2514 44.3444 18.2416C43.3135 19.2318 43.3132 20.8374 44.3438 21.8278ZM21.3685 22.454C22.11 22.454 22.8293 22.2011 23.4083 21.7368L34.4292 12.8995V45.0995L23.4083 36.2622C22.8293 35.798 22.11 35.5451 21.3685 35.5451H11.573V22.454H21.3685Z" fill="white"/>
</mask>
<g mask="url(#mask0_186_354)">
</g>
</svg>
