<svg width="60" height="60" viewBox="0 0 60 60" fill="none" xmlns="http://www.w3.org/2000/svg">
<mask id="mask0_187_450" style="mask-type:alpha" maskUnits="userSpaceOnUse" x="13" y="7" width="37" height="47">
<path d="M17.625 13.5166V46.4909L43.4111 30.0038L17.625 13.5166ZM16.563 7.36905L48.938 28.069C50.354 28.9744 50.354 31.0331 48.938 31.9385L16.563 52.6385C15.024 53.6225 13 52.5234 13 50.7038V9.30376C13 7.48408 15.024 6.38504 16.563 7.36905Z" fill="white"/>
</mask>
<g mask="url(#mask0_187_450)">
<path d="M17.625 13.5166V46.4909L43.4111 30.0038L17.625 13.5166ZM16.563 7.36905L48.938 28.069C50.354 28.9744 50.354 31.0331 48.938 31.9385L16.563 52.6385C15.024 53.6225 13 52.5234 13 50.7038V9.30376C13 7.48408 15.024 6.38504 16.563 7.36905Z" fill="#C04949"/>
</g>
</svg>
