<svg width="60" height="60" viewBox="0 0 60 60" fill="none" xmlns="http://www.w3.org/2000/svg">
<path d="M15.6024 35.8652C18.2138 43.2565 25.3988 48.0297 33.2245 47.5719C41.0502 47.1141 47.6296 41.5357 49.3613 33.8903C51.0929 26.2449 47.5593 18.3758 40.6946 14.5907C33.8299 10.8056 25.2894 12.017 19.7481 17.5618L9.51452 27.2C8.62999 28.0329 7.23771 27.9911 6.40476 27.1066C5.57181 26.2221 5.61363 24.8298 6.49816 23.9968L16.6838 14.4051C23.5625 7.52064 34.2382 6.00638 42.8191 10.7378C51.3999 15.4692 55.817 25.3054 53.6525 34.8622C51.4879 44.4189 43.2635 51.392 33.4814 51.9643C23.6994 52.5365 14.718 46.57 11.4539 37.3309C11.0491 36.1853 11.6497 34.9285 12.7953 34.5238C13.9409 34.119 15.1977 34.7196 15.6024 35.8652Z" fill="white"/>
<path d="M17.3559 24.4985C18.2672 24.4985 19.0059 25.2372 19.0059 26.1484C19.0059 27.0597 18.2672 27.7984 17.3559 27.7984H7.45625C6.54501 27.7984 5.8063 27.0597 5.8063 26.1484V16.2488C5.8063 15.3375 6.54501 14.5988 7.45625 14.5988C8.36749 14.5988 9.10619 15.3375 9.10619 16.2488V24.4985H17.3559Z" fill="white" stroke="white" stroke-width="0.5"/>
<mask id="mask0_186_358" style="mask-type:alpha" maskUnits="userSpaceOnUse" x="23" y="23" width="21" height="14">
<path d="M29.4655 36.4157C29.6149 36.4157 29.744 36.3668 29.8526 36.269C29.9613 36.1713 30.0156 36.0552 30.0156 35.9207V24.0778C30.0156 23.9433 29.9613 23.8272 29.8526 23.7295C29.744 23.6317 29.6149 23.5828 29.4655 23.5828H28.6302C28.5215 23.5828 28.4128 23.5889 28.3042 23.6011C28.1955 23.6134 28.0868 23.6561 27.9782 23.7295L23.618 26.736C23.4958 26.8216 23.4244 26.9316 23.4041 27.066C23.3837 27.2005 23.4211 27.3227 23.5161 27.4327L24.0051 28.001C24.1002 28.0988 24.2225 28.1599 24.3719 28.1843C24.5213 28.2088 24.6571 28.1721 24.7794 28.0743L28.0801 25.8194V35.9207C28.0801 36.0552 28.1344 36.1713 28.243 36.269C28.3517 36.3668 28.4808 36.4157 28.6302 36.4157H29.4655ZM37.9821 36.599C38.8786 36.599 39.6494 36.4707 40.2946 36.214C40.9398 35.9574 41.473 35.603 41.894 35.1507C42.3151 34.6985 42.6309 34.1638 42.8415 33.5466C43.052 32.9294 43.1641 32.2664 43.1776 31.5575C43.1912 31.0076 43.198 30.4912 43.198 30.0084C43.198 29.5257 43.1912 29.0093 43.1776 28.4593C43.1641 27.7504 43.052 27.0874 42.8415 26.4702C42.6309 25.853 42.3151 25.3183 41.894 24.8661C41.473 24.4139 40.9398 24.0564 40.2946 23.7936C39.6494 23.5309 38.8786 23.3995 37.9821 23.3995C37.0856 23.3995 36.3148 23.5309 35.6696 23.7936C35.0244 24.0564 34.4913 24.4139 34.0702 24.8661C33.6491 25.3183 33.3333 25.853 33.1228 26.4702C32.9122 27.0874 32.8002 27.7504 32.7866 28.4593C32.773 29.0093 32.7662 29.5257 32.7662 30.0084C32.7662 30.4912 32.773 31.0076 32.7866 31.5575C32.8002 32.2664 32.9122 32.9294 33.1228 33.5466C33.3333 34.1638 33.6491 34.6985 34.0702 35.1507C34.4913 35.603 35.0244 35.9574 35.6696 36.214C36.3148 36.4707 37.0856 36.599 37.9821 36.599ZM37.9821 34.9491C36.9226 34.9491 36.1178 34.6741 35.5677 34.1241C35.0176 33.5741 34.729 32.7186 34.7018 31.5575C34.6882 31.0076 34.6814 30.4912 34.6814 30.0084C34.6814 29.5257 34.6882 29.0093 34.7018 28.4593C34.729 27.2982 35.0176 26.4396 35.5677 25.8836C36.1178 25.3275 36.9226 25.0494 37.9821 25.0494C39.0416 25.0494 39.8464 25.3275 40.3965 25.8836C40.9466 26.4396 41.2353 27.2982 41.2624 28.4593C41.276 29.0093 41.2828 29.5257 41.2828 30.0084C41.2828 30.4912 41.276 31.0076 41.2624 31.5575C41.2353 32.7186 40.9466 33.5741 40.3965 34.1241C39.8464 34.6741 39.0416 34.9491 37.9821 34.9491Z" fill="white"/>
</mask>
<g mask="url(#mask0_186_358)">
<path d="M29.4655 36.4157C29.6149 36.4157 29.744 36.3668 29.8526 36.269C29.9613 36.1713 30.0156 36.0552 30.0156 35.9207V24.0778C30.0156 23.9433 29.9613 23.8272 29.8526 23.7295C29.744 23.6317 29.6149 23.5828 29.4655 23.5828H28.6302C28.5215 23.5828 28.4128 23.5889 28.3042 23.6011C28.1955 23.6134 28.0868 23.6561 27.9782 23.7295L23.618 26.736C23.4958 26.8216 23.4244 26.9316 23.4041 27.066C23.3837 27.2005 23.4211 27.3227 23.5161 27.4327L24.0051 28.001C24.1002 28.0988 24.2225 28.1599 24.3719 28.1843C24.5213 28.2088 24.6571 28.1721 24.7794 28.0743L28.0801 25.8194V35.9207C28.0801 36.0552 28.1344 36.1713 28.243 36.269C28.3517 36.3668 28.4808 36.4157 28.6302 36.4157H29.4655ZM37.9821 36.599C38.8786 36.599 39.6494 36.4707 40.2946 36.214C40.9398 35.9574 41.473 35.603 41.894 35.1507C42.3151 34.6985 42.6309 34.1638 42.8415 33.5466C43.052 32.9294 43.1641 32.2664 43.1776 31.5575C43.1912 31.0076 43.198 30.4912 43.198 30.0084C43.198 29.5257 43.1912 29.0093 43.1776 28.4593C43.1641 27.7504 43.052 27.0874 42.8415 26.4702C42.6309 25.853 42.3151 25.3183 41.894 24.8661C41.473 24.4139 40.9398 24.0564 40.2946 23.7936C39.6494 23.5309 38.8786 23.3995 37.9821 23.3995C37.0856 23.3995 36.3148 23.5309 35.6696 23.7936C35.0244 24.0564 34.4913 24.4139 34.0702 24.8661C33.6491 25.3183 33.3333 25.853 33.1228 26.4702C32.9122 27.0874 32.8002 27.7504 32.7866 28.4593C32.773 29.0093 32.7662 29.5257 32.7662 30.0084C32.7662 30.4912 32.773 31.0076 32.7866 31.5575C32.8002 32.2664 32.9122 32.9294 33.1228 33.5466C33.3333 34.1638 33.6491 34.6985 34.0702 35.1507C34.4913 35.603 35.0244 35.9574 35.6696 36.214C36.3148 36.4707 37.0856 36.599 37.9821 36.599ZM37.9821 34.9491C36.9226 34.9491 36.1178 34.6741 35.5677 34.1241C35.0176 33.5741 34.729 32.7186 34.7018 31.5575C34.6882 31.0076 34.6814 30.4912 34.6814 30.0084C34.6814 29.5257 34.6882 29.0093 34.7018 28.4593C34.729 27.2982 35.0176 26.4396 35.5677 25.8836C36.1178 25.3275 36.9226 25.0494 37.9821 25.0494C39.0416 25.0494 39.8464 25.3275 40.3965 25.8836C40.9466 26.4396 41.2353 27.2982 41.2624 28.4593C41.276 29.0093 41.2828 29.5257 41.2828 30.0084C41.2828 30.4912 41.276 31.0076 41.2624 31.5575C41.2353 32.7186 40.9466 33.5741 40.3965 34.1241C39.8464 34.6741 39.0416 34.9491 37.9821 34.9491Z" fill="white" stroke="white" stroke-width="0.5"/>
</g>
</svg>
