<svg width="194" height="194" viewBox="0 0 194 194" fill="none" xmlns="http://www.w3.org/2000/svg">
<circle opacity="0.5" cx="97" cy="97" r="97" fill="#C04949"/>
<path fill-rule="evenodd" clip-rule="evenodd" d="M153.803 92.4759L78.3585 43.9759C74.7721 41.6704 70.0555 44.2454 70.0555 48.5089V145.509C70.0555 149.772 74.7721 152.347 78.3585 150.042L153.803 101.542C157.103 99.4207 157.103 94.5972 153.803 92.4759ZM140.923 97.0089L80.8333 135.638V58.3796L140.923 97.0089Z" fill="white"/>
<mask id="mask0_191_204" style="mask-type:alpha" maskUnits="userSpaceOnUse" x="70" y="43" width="87" height="108">
<path fill-rule="evenodd" clip-rule="evenodd" d="M153.803 92.4759L78.3585 43.9759C74.7721 41.6704 70.0555 44.2454 70.0555 48.5089V145.509C70.0555 149.772 74.7721 152.347 78.3585 150.042L153.803 101.542C157.103 99.4207 157.103 94.5972 153.803 92.4759ZM140.923 97.0089L80.8333 135.638V58.3796L140.923 97.0089Z" fill="white"/>
</mask>
<g mask="url(#mask0_191_204)">
</g>
</svg>
