<svg width="60" height="60" viewBox="0 0 60 60" fill="none" xmlns="http://www.w3.org/2000/svg">
<mask id="mask0_186_350" style="mask-type:alpha" maskUnits="userSpaceOnUse" x="12" y="7" width="36" height="46">
<path d="M17.1429 12.1111V47.8889H22.2857V12.1111H17.1429ZM24.8571 7C26.2773 7 27.4286 8.14416 27.4286 9.55556V50.4444C27.4286 51.8558 26.2773 53 24.8571 53H14.5714C13.1513 53 12 51.8558 12 50.4444V9.55556C12 8.14416 13.1513 7 14.5714 7H24.8571ZM45.4286 7C46.8487 7 48 8.14416 48 9.55556V50.4444C48 51.8558 46.8487 53 45.4286 53H35.1429C33.7227 53 32.5714 51.8558 32.5714 50.4444V9.55556C32.5714 8.14416 33.7227 7 35.1429 7H45.4286ZM42.8571 12.1111H37.7143V47.8889H42.8571V12.1111Z" fill="white"/>
</mask>
<g mask="url(#mask0_186_350)">
<path d="M17.1429 12.1111V47.8889H22.2857V12.1111H17.1429ZM24.8571 7C26.2773 7 27.4286 8.14416 27.4286 9.55556V50.4444C27.4286 51.8558 26.2773 53 24.8571 53H14.5714C13.1513 53 12 51.8558 12 50.4444V9.55556C12 8.14416 13.1513 7 14.5714 7H24.8571ZM45.4286 7C46.8487 7 48 8.14416 48 9.55556V50.4444C48 51.8558 46.8487 53 45.4286 53H35.1429C33.7227 53 32.5714 51.8558 32.5714 50.4444V9.55556C32.5714 8.14416 33.7227 7 35.1429 7H45.4286ZM42.8571 12.1111H37.7143V47.8889H42.8571V12.1111Z" fill="white"/>
</g>
</svg>
