<svg width="60" height="60" viewBox="0 0 60 60" fill="none" xmlns="http://www.w3.org/2000/svg">
<path fill-rule="evenodd" clip-rule="evenodd" d="M34.2733 6.6344L20.5252 17.5018H9.90971C8.30313 17.5018 7.00073 18.7887 7.00073 20.3762V37.6221C7.00073 39.2096 8.30313 40.4964 9.90971 40.4964H20.5252L34.2733 51.3639C36.178 52.8695 38.9995 51.5296 38.9995 49.1194V8.87887C38.9995 6.46873 36.178 5.12879 34.2733 6.6344ZM44.3438 36.1705C48.4652 32.2095 48.4652 25.7888 44.3438 21.8278C43.3132 20.8374 43.3135 19.2318 44.3444 18.2416C45.3753 17.2514 47.0464 17.2517 48.077 18.2421C54.2591 24.1836 54.2591 33.8147 48.077 39.7561C47.0464 40.7466 45.3753 40.7468 44.3444 39.7567C43.3135 38.7665 43.3132 37.1609 44.3438 36.1705Z" fill="#C04949"/>
</svg>
